<?xml version="1.0" encoding="iso-8859-1"?>
<!-- Uploaded to: SVG Repo, www.svgrepo.com, Generator: SVG Repo Mixer Tools -->
<svg fill="#000000" height="800px" width="800px" version="1.1" id="Layer_1" xmlns="http://www.w3.org/2000/svg" xmlns:xlink="http://www.w3.org/1999/xlink" 
	 viewBox="0 0 512 512" xml:space="preserve">
<g>
	<g>
		<path d="M474.432,208.982H326.057h-0.461c-4.163-38.262-36.656-68.143-76.007-68.143h-26.094
			c-6.372-27.515-31.064-48.092-60.488-48.092c-29.424,0-54.117,20.577-60.489,48.092H76.469c-39.351,0-71.844,29.881-76.007,68.143
			H0v8.326v22.086v129.144c0,27.964,22.75,50.714,50.714,50.714h224.629c27.964,0,50.714-22.75,50.714-50.714V284.12h148.373
			c20.715,0,37.569-16.853,37.569-37.569C512,225.834,495.147,208.982,474.432,208.982z M163.007,123.159
			c12.447,0,23.241,7.214,28.423,17.68h-56.845C139.765,130.373,150.559,123.159,163.007,123.159z M76.469,171.251h24.436h124.204
			h24.48c22.555,0,41.375,16.294,45.303,37.732H31.166C35.094,187.545,53.914,171.251,76.469,171.251z M295.646,284.12v84.418
			c0,11.194-9.108,20.303-20.303,20.303H50.714c-11.194,0-20.303-9.108-20.303-20.303V239.394h265.234V284.12z M474.432,253.708
			H326.057v-14.315h148.373c3.946,0,7.158,3.21,7.158,7.158S478.378,253.708,474.432,253.708z"/>
	</g>
</g>
</svg>